<svg width="108" height="107" viewBox="0 0 108 107" fill="none" xmlns="http://www.w3.org/2000/svg">
<g id="vscode">
<g id="vscode_2">
<path id="Vector" d="M3.5472 41.861C3.5472 41.861 0.986254 40.2938 3.72412 37.736L10.0557 31.1513C10.0557 31.1513 11.8443 28.9604 14.0331 30.5862L80.2773 73.2938L81.9957 96.0427C81.9957 96.0427 82.2352 99.6172 77.6212 99.5688L3.5472 41.861Z" fill="#2489CA"/>
<path id="Vector_2" d="M20.8058 55.3044L5.76406 71.2079C5.76406 71.2079 4.1977 72.5679 6.02396 74.6486L14.0378 80.9028C14.0378 80.9028 15.9633 82.6808 18.4301 80.3064L34.5718 66.0295L20.8058 55.3044Z" fill="#1070B3"/>
<path id="Vector_3" d="M49.1702 53.2839L77.0818 28.4291L75.1803 5.81608C75.1803 5.81608 73.5424 0.973245 69.5166 3.86239L32.8105 42.7139L49.1702 53.2839Z" fill="#0877B9"/>
<path id="Vector_4" d="M77.6236 99.5992C79.477 101.23 81.518 100.496 81.518 100.496L103.742 87.3777C106.544 85.1407 105.941 82.6725 105.941 82.6725L100.81 14.7496C100.585 11.7643 97.4504 10.9629 97.4504 10.9629L76.7155 2.83017C72.1397 0.458458 69.5167 3.86247 69.5167 3.86247C69.5167 3.86247 72.9999 0.932882 75.1804 5.81615L81.9645 95.6279C82.0111 96.2451 81.9255 96.8623 81.7036 97.4286C81.2577 98.5309 80.1891 99.609 77.4153 99.4013L77.6236 99.5992Z" fill="#3C99D4"/>
</g>
</g>
</svg>
